HIERARCHY
ROOT Hips
{
  OFFSET 0.0 0.0 0.0
  CHANNELS 6 XPOSITION YPOSITION ZPOSITION ZROTATION XROTATION YROTATION 
  JOINT LeftUpLeg
  {
    OFFSET 0.089458 -0.0866707 0.00101652
    CHANNELS 3 ZROTATION XROTATION YROTATION 
    JOINT LeftLeg
    {
      OFFSET 0.0 -0.444227 0.013727
      CHANNELS 3 ZROTATION XROTATION YROTATION 
      JOINT LeftFoot
      {
        OFFSET -0.00253549 -0.420924 -0.0146059
        CHANNELS 3 ZROTATION XROTATION YROTATION 
        End Site
        {
          OFFSET -0.0004 -0.0441509 0.084991
        }
      }
    }
  }
  JOINT Spine
  {
    OFFSET 0.0 0.118905 0.0
    CHANNELS 3 ZROTATION XROTATION YROTATION 
    JOINT Spine1
    {
      OFFSET 0.0 0.256574 0.00127663
      CHANNELS 3 ZROTATION XROTATION YROTATION 
      End Site
      {
        OFFSET -0.0029 0.2150836 0.02525291
      }
      JOINT RightArm
      {
        OFFSET -0.162727 -0.05365632 0.00102123
        CHANNELS 3 ZROTATION XROTATION YROTATION 
        JOINT RightForeArm
        {
          OFFSET -0.26364 0.00099144 -0.0142434
          CHANNELS 3 ZROTATION XROTATION YROTATION 
          End Site
          {
            OFFSET -0.220324 0.00085362 0.0102216
          }
        }
      }
      JOINT LeftArm
      {
        OFFSET 0.162727 -0.0536563199 0.00102123
        CHANNELS 3 ZROTATION XROTATION YROTATION 
        JOINT LeftForeArm
        {
          OFFSET 0.262597 0.00099144 -0.0142434
          CHANNELS 3 ZROTATION XROTATION YROTATION 
          End Site
          {
            OFFSET 0.220902 0.00085362 0.0102216
          }
        }
      }
    }
  }
  JOINT RightUpLeg
  {
    OFFSET -0.089458 -0.0866707 0.00101652
    CHANNELS 3 ZROTATION XROTATION YROTATION 
    JOINT RightLeg
    {
      OFFSET 0.0 -0.444227 0.013727
      CHANNELS 3 ZROTATION XROTATION YROTATION 
      JOINT RightFoot
      {
        OFFSET 0.00253549 -0.420924 -0.0146059
        CHANNELS 3 ZROTATION XROTATION YROTATION 
        End Site
        {
          OFFSET 0.0004 -0.0441509 0.084991
        }
      }
    }
  }
}
MOTION
Frames: 19
Frame Time: 0.033333
21.6753664 1.06068057988 0.38229076 -3.90670001184 -0.839176998387 -88.3612966886 -2.53752989577 3.42834002935 -4.94049012386 1.20949000495 39.0184972375 19.0134007907 -11.4224002641 -12.1108671108 -0.773314764881 4.36608999768 14.2418997922 -1.66325991904 0.101383999656 -0.933686966262 -0.780634006268 74.1284870244 -2.92833987314 3.9074205968 3.98742004122 22.9495995358 18.7599990649 -73.7331761659 -7.58515900728 1.66225556106 3.54418985607 30.6045989349 -28.985499177 -1.44480005369 -15.6140993106 -5.16377028848 2.68292989561 19.2595010442 -18.8351994477 -2.34443361775 -1.90051486415 -0.123246307942 
21.6964834 1.05766257988 0.38793986 -3.95235000804 -0.513276016243 -88.4258966178 -2.51186994228 5.73534997342 -4.70180019869 1.15041004257 33.2562013141 19.6269003348 -11.8989271946 -14.6508957886 -1.06032155496 4.19793031343 14.3080996932 -1.58771002269 0.217023991493 -0.852227995787 -0.846354993596 73.8912335734 -3.04998298094 4.19221686018 4.14151038956 22.417801007 18.7726980942 -73.6793542752 -8.65715036732 1.2624578018 4.59066021429 31.5577996449 -31.0083997186 -1.55241992935 -16.6515999229 -5.06468985684 2.87600995193 18.525800416 -19.0205007723 -2.77161029703 -0.0315275562342 -0.0588957340372 
21.7196164 1.05425257988 0.39417326 -4.11694988308 -0.307242986404 -88.4943009623 -2.67854000496 7.52629985211 -3.77327995037 1.12008005395 27.8908998908 20.3728987186 -10.8916501694 -18.4497650426 -1.30621412805 3.86043999436 14.6201001731 -1.49626990468 0.283507011821 -0.854402023655 -0.888442992787 73.7370898642 -3.32509681085 4.29128235079 4.24912044682 22.044700216 18.7785003399 -73.644178801 -9.65208097183 0.775706078142 5.74134986772 32.4811012018 -33.1076993411 -1.75745004196 -17.4783004068 -4.79565041298 2.97862991567 17.3451988029 -19.1941993131 -3.29791884781 1.92501432582 0.0259900487332 
21.7447784 1.05103857988 0.40050296 -4.27572019166 -0.552152012256 -88.463203111 -3.38304989874 8.25944979629 -2.35514997111 1.13240993278 23.9248993228 20.5424991458 -8.41242725068 -21.583010164 -1.20614972228 2.86420012797 15.1167010296 -1.38782997944 0.338985009911 -1.00349000548 -0.96739106833 73.8487839477 -3.91381109254 4.20704349333 4.22795027549 22.2113995205 18.7135998824 -73.4987299226 -10.5182710482 0.213179061898 6.88300019268 33.2866981087 -35.1003011636 -2.43707979775 -18.188298571 -4.66900974114 2.89162995423 15.7330009512 -19.389800563 -2.95841362295 4.27550376004 0.0819760571505 
21.7712244 1.04923057988 0.40619436 -4.38684993077 -1.55541998322 -88.4100027676 -4.84312022771 7.89135041135 -0.931382951356 1.22245007545 21.6498999141 19.8742009941 -6.01677468468 -22.7600839844 -0.881271294159 0.675331965977 15.5499996928 -1.16841997075 0.599924009498 -1.01284992596 -1.095030015 74.2632808077 -4.55818949497 4.05197941615 4.13313017434 22.7701994946 18.5771992971 -73.1613595587 -11.0759773383 -0.498632197385 7.78086954021 33.8098974293 -36.7340004508 -3.90812965581 -18.6539996517 -5.11751027101 2.61091003312 13.6867001815 -19.5243006482 -1.20576872579 6.25912473747 -0.00358945784193 
21.7972784 1.04964257988 0.41107826 -4.53801012796 -3.01435009749 -88.51660153 -6.56044963176 6.92250984882 0.0896955983154 1.04921001112 20.5451987781 19.0142989606 -4.62860618399 -22.2682420623 -0.623872413636 -2.06349000794 15.7488008863 -0.799718035056 0.852727026483 -0.671678028215 -1.12557995706 74.913453345 -4.83308753359 3.61130969816 3.98413002448 23.2228002724 18.5773000424 -72.6196640858 -10.9253904501 -1.47954383862 8.11234032818 33.9388992122 -37.4607018426 -5.75159984723 -18.5166001512 -5.86544970918 2.21501007071 11.0297002453 -19.4318011038 1.54183068154 5.92246172507 -0.231785777857 
21.8210044 1.05228457988 0.41567636 -4.77380021093 -4.12115984093 -88.8597024225 -7.74839028316 5.9336700655 1.13201997167 0.573798002314 19.8045006211 18.2772003133 -3.67747416754 -20.9848119512 -0.430683100963 -3.82484019464 15.7290992056 -0.404218972735 0.46018901125 -0.304016976001 -0.883871995407 75.7200167237 -5.00175649382 2.52406439127 3.78217968685 23.7672005002 18.6151000168 -71.9701882279 -10.0106513891 -2.52514164016 7.76902001577 33.770999502 -36.8025994557 -7.06669001955 -17.5777001498 -6.31069992278 1.85207985831 7.60387970202 -19.0645981812 4.68294588837 2.88976147061 -0.390614063002 
21.8416104 1.05657057988 0.42046976 -4.99542021271 -4.3456502297 -89.5233987344 -8.05690992797 5.2141595822 1.89352011011 -0.042813399966 18.8181000691 18.2651996709 -2.63612282267 -19.4058327245 -0.241894244385 -3.79949976593 15.5395990222 -0.159725000937 -0.746106973126 -0.333936006011 -0.416199017818 76.5124142901 -5.94156619107 0.973137818743 3.67891021481 25.4370007522 18.0580997975 -71.5051343076 -9.06240085871 -3.07351426329 7.06993009054 33.5541990525 -35.0234000637 -7.38144007755 -16.3887008191 -6.26655000687 1.78264991818 4.5558399099 -18.9115011985 7.80144890018 -0.467318981691 -0.369442130761 
21.8599714 1.06187257988 0.42529456 -5.07434006036 -3.70845974759 -90.3757995126 -7.62471007144 4.71537007702 1.90199018501 -0.556455991929 17.3819998622 19.1595002446 -1.73125477239 -17.6596009481 -0.0983914963459 -2.60345979084 15.1764993358 -0.12169900329 -2.02072982208 -0.654108006905 -0.00493858987385 76.9637122093 -7.9092352617 -0.378234932101 3.90035007034 28.7067011004 16.5864006446 -71.5192318181 -8.96518079983 -2.73247203242 6.46558983014 33.4817990473 -33.0568007714 -6.8919699386 -15.9724998269 -6.0192297108 2.1310399385 4.36473975466 -19.370500156 9.96377409328 -2.21443697515 -0.289576915559 
21.8772524 1.06740357988 0.42947616 -5.03760986432 -2.60313023421 -91.0994034137 -6.72786012964 4.26186003028 1.66349993615 -0.823091049118 15.8204990896 20.0971998403 -1.07346433303 -15.963096364 -0.0109607110525 -1.42408003452 14.7315005585 -0.215312001909 -2.47932985385 -0.89837403448 0.107111006554 76.904487639 -9.83087056487 -1.2471136751 4.37819010468 32.2295965611 14.9154990245 -71.9211884507 -9.57197907456 -1.68546593125 6.02891022329 33.412899514 -31.6150981018 -6.01023990119 -16.3665009967 -5.74490028543 2.62285005756 7.64947975247 -20.2229999719 10.3515119796 -2.81366121042 -0.241510926699 
21.8936054 1.07174357988 0.43238896 -5.07735003935 -1.51512997797 -91.4513015899 -5.70347988387 3.70000994982 1.7685900805 -0.942503032934 14.8613014735 20.3376003009 -0.412195299665 -14.6808973945 0.0577393243138 -1.03288009603 14.4213997249 -0.34725599547 -1.99183982944 -1.03832994666 -0.0846441998467 76.4925316094 -10.4936482163 -2.01446098908 4.64452009787 33.7819995217 14.1653999659 -72.37284837 -9.72632683566 -0.484391199604 5.47571015052 32.9912002196 -30.5905014244 -5.07575006754 -16.800199226 -6.11093994145 2.53719009386 13.0208002799 -19.898099826 9.54758163885 -3.73433207728 -0.1649230417 
21.9091454 1.07449357988 0.43416676 -5.35174990105 -0.619214011179 -91.4914972532 -4.78690008688 3.09964016376 2.07567997461 -0.954209016676 14.6417996841 20.0876017169 0.270377520607 -13.7607044274 0.116361410557 -1.25313992966 14.4211999419 -0.446327008927 -0.999323910248 -1.16298997036 -0.402954000357 75.9976365927 -10.4051605542 -3.00187070154 4.52945958489 32.9444988011 14.5143005429 -72.7155189607 -8.74830863331 0.416794871782 4.69861007346 32.2143003524 -29.496400742 -4.10060993615 -16.6366008275 -8.30386993156 0.870071971715 18.9480000218 -16.4542979559 8.87537918017 -5.23814720656 -0.0565747970707 
21.9241234 1.07616357988 0.43524856 -5.87850988465 0.0793628027617 -91.4806031014 -4.087989881 2.64454999544 2.32198001118 -0.835623005502 14.7507002203 19.8224981696 0.701881284807 -12.9379082504 0.1447471965 -1.64830991561 14.6076999647 -0.474612022899 -0.0175781004763 -1.11301998622 -0.673892023362 75.6109795838 -10.7198102938 -3.93388928738 4.34820984309 31.1881976183 15.1641008349 -73.0133561896 -7.1270014437 0.87905655196 3.87406024534 31.3889027271 -28.1018007645 -3.22345996746 -15.8040007676 -8.25221918728 -0.873942981427 24.6057018435 -14.4916994469 9.01085683613 -6.53129624995 0.0391223864159 
21.9385184 1.07708357988 0.43582456 -6.5207397657 0.588187983595 -91.6299998291 -3.57807997408 2.29047000066 2.57033999011 -0.76411898238 14.990199096 19.6764004232 0.869458428629 -12.2030097778 0.148140853362 -2.06090008558 14.6887999234 -0.435290010198 0.649671051987 -0.747689015693 -0.835725991948 75.3717795289 -11.4421531712 -4.41980175154 4.27220008291 29.976501569 15.5380997957 -73.3365334204 -5.63607616204 1.02828658037 3.06605014719 30.5736001213 -26.423500342 -2.62561991271 -14.4244989232 -4.90235973904 -1.02743995708 29.8642986364 -16.054699446 9.55240802127 -7.38140421905 0.118326223862 
21.9522564 1.07774357988 0.43591676 -7.06278016314 0.886505033332 -91.91779668 -3.14934003525 1.89189004278 2.93688998933 -0.923425994417 15.2131996497 19.5288000353 1.04708592901 -11.5144097424 0.150761938456 -2.42737004352 14.5459004131 -0.364734983165 0.957459973277 -0.315030976203 -0.909021018735 75.2423132932 -11.7115050962 -4.54519079121 4.19591967649 29.5858010881 15.7205990352 -73.6068244964 -4.81026232205 1.11966629389 2.17163004519 29.8559999566 -24.5661004066 -2.20871989337 -12.654300013 -2.09819996208 -1.09738995208 34.4048991136 -17.1502003172 9.79034961384 -8.16651738867 0.188537126754 
21.9654744 1.07852357988 0.43553876 -7.3938300407 1.05380000496 -92.1739970758 -2.75374017428 1.40770999207 3.29099986618 -1.2085300432 15.2307993397 19.3462990882 1.26736198434 -10.6895098671 0.151820004128 -2.62086994303 14.2834999131 -0.326803020681 0.984452027103 -0.162913992248 -0.940682040468 75.2080940454 -11.086581207 -4.64100255045 4.04118003329 29.3525023166 16.0193002831 -73.6598609153 -5.31174292176 1.34512891741 1.18666991604 30.082400237 -22.7254993216 -1.95801993432 -10.6158992109 0.00164061996387 -1.17110007294 38.0482996018 -17.6276988421 9.69714741375 -8.76332821929 0.232334807673 
21.9785294 1.07906357988 0.43468726 -7.57111016193 1.124260023 -92.2925008579 -2.47105017048 0.783834003255 3.43953001365 -1.38116008627 15.1911005727 19.227501608 1.34976992423 -9.79790721816 0.140926506072 -2.64983997695 14.0022002797 -0.351967998904 0.793176954987 -0.260778997069 -0.967936949855 75.3206009214 -9.88624803111 -4.78042677509 3.82931994496 28.6546994551 16.5687992471 -73.5191931693 -6.59376686765 1.69756507775 0.336349010459 31.1568982764 -21.1489994536 -1.92248993059 -8.4169394444 1.26755995311 -1.22389999655 40.9163984871 -17.6308014555 9.8852764367 -8.87983331729 0.25008046623 
21.9918114 1.07888357988 0.43344126 -7.66904056048 1.03638003437 -92.3226015016 -2.41385011094 -0.044454599708 3.35377997683 -1.41221001951 15.3003989673 19.2692989506 1.36594616006 -9.04040594203 0.127913368197 -2.6953898682 13.6561999718 -0.388108023907 0.483986991144 -0.313246989489 -0.985395980591 75.5652514673 -8.54249881191 -4.83059664898 3.57326981335 27.4390999527 17.3525993129 -73.3502211195 -7.86182179603 2.06549103992 -0.201765002042 32.4183010275 -20.0624000264 -2.21223018372 -6.09243994719 1.72034002338 -1.26005005339 43.0833989447 -17.4231995632 10.5542448008 -8.95384610091 0.287786872388 
22.0054334 1.07827357988 0.43192036 -7.69249030744 0.745727043854 -92.3717993541 -2.5866699052 -0.987173003714 3.12808021769 -1.4735300705 15.3684993684 19.5050992789 1.50049224225 -8.27430460397 0.119413678023 -2.88432997611 13.1604998466 -0.361288992646 0.231273993917 -0.197207998545 -0.952491010656 75.8112065793 -7.12316757314 -4.7616493044 3.28183012378 25.8874005016 18.3389008271 -73.2752802839 -8.69426732282 2.41283497408 -0.444895977574 33.1769984405 -19.5297016202 -2.83060989796 -3.64615988463 1.68220003361 -1.27925996043 44.461399855 -17.1752995548 11.1835348885 -9.46037719862 0.363811546925 
